<?xml version="1.0" encoding="utf-8"?>
<!-- Generator: Adobe Illustrator 23.0.2, SVG Export Plug-In . SVG Version: 6.00 Build 0)  -->
<svg version="1.1" id="Layer_1" xmlns="http://www.w3.org/2000/svg" xmlns:xlink="http://www.w3.org/1999/xlink" x="0px" y="0px"
	 viewBox="0 0 187.4 246.1" style="enable-background:new 0 0 187.4 246.1;" xml:space="preserve">
<style type="text/css">
	.st0{fill:none;stroke:#000000;stroke-miterlimit:10;}
	.st1{fill:none;stroke:#000000;stroke-width:0.5;stroke-miterlimit:10;}
	.st2{fill:#020202;stroke:#000000;stroke-miterlimit:10;}
	.st3{fill:none;}
</style>
<g>
	<rect x="0.8" y="1" class="st0" width="186" height="244"/>
	<rect x="5.5" y="6" class="st0" width="175.8" height="10.2"/>
	<rect x="5.5" y="20.4" class="st0" width="175.8" height="47.6"/>
	<rect x="5.5" y="72.3" class="st0" width="175.8" height="13.7"/>
	<rect x="65.9" y="92.5" class="st0" width="55" height="19.4"/>
	<rect x="5.5" y="92.5" class="st0" width="55" height="19.4"/>
	<rect x="5.5" y="139.3" class="st0" width="55" height="19.4"/>
	<rect x="126.2" y="92.5" class="st0" width="55" height="19.4"/>
	<rect x="65.9" y="115.9" class="st0" width="55" height="19.4"/>
	<rect x="65.9" y="139.3" class="st0" width="55" height="19.4"/>
	<rect x="126.2" y="115.9" class="st0" width="55" height="19.4"/>
	<rect x="5.5" y="115.9" class="st0" width="55" height="19.4"/>
	<rect x="5.5" y="232" class="st0" width="175.8" height="10.2"/>
	<path class="st0" d="M66.3,222.6h-2.5c-1.9,0-3.5-1.6-3.5-3.5v-4.6c0-1.9,1.6-3.5,3.5-3.5h2.5c1.9,0,3.5,1.6,3.5,3.5v4.6
		C69.8,221.1,68.2,222.6,66.3,222.6z"/>
	<path class="st0" d="M94.6,222.6h-2.5c-1.9,0-3.5-1.6-3.5-3.5v-4.6c0-1.9,1.6-3.5,3.5-3.5h2.5c1.9,0,3.5,1.6,3.5,3.5v4.6
		C98.1,221.1,96.6,222.6,94.6,222.6z"/>
	<path class="st0" d="M80.5,222.6H78c-1.9,0-3.5-1.6-3.5-3.5v-4.6c0-1.9,1.6-3.5,3.5-3.5h2.5c1.9,0,3.5,1.6,3.5,3.5v4.6
		C84,221.1,82.4,222.6,80.5,222.6z"/>
	<path class="st0" d="M108.9,222.6h-2.5c-1.9,0-3.5-1.6-3.5-3.5v-4.6c0-1.9,1.6-3.5,3.5-3.5h2.5c1.9,0,3.5,1.6,3.5,3.5v4.6
		C112.4,221.1,110.9,222.6,108.9,222.6z"/>
	<path class="st0" d="M123.8,222.6h-2.5c-1.9,0-3.5-1.6-3.5-3.5v-4.6c0-1.9,1.6-3.5,3.5-3.5h2.5c1.9,0,3.5,1.6,3.5,3.5v4.6
		C127.3,221.1,125.7,222.6,123.8,222.6z"/>
	<rect x="155.1" y="212.1" class="st0" width="20.8" height="9.5"/>
	<line class="st1" x1="167.5" y1="212.1" x2="167.5" y2="221.6"/>
	<polygon class="st2" points="174,215.6 171.5,218.1 169,215.6 	"/>
	<rect x="82.4" y="36.3" class="st1" width="22.9" height="17.3"/>
	<rect x="5.5" y="205.1" class="st3" width="175.8" height="22.9"/>
	<path class="st1" d="M103.7,50.8v0.4c0,0.4-0.3,0.7-0.7,0.7H84.6c-0.4,0-0.8-0.3-0.8-0.7v-1.4l4-5.8c0.1-0.2,0.4-0.3,0.6-0.3
		c0.2,0,0.3,0,0.5,0.1l5.9,4.1l3.2-2.7c0.2-0.2,0.4-0.2,0.6-0.2c0.1,0,0.3,0.1,0.4,0.2L103.7,50.8z"/>
	<circle class="st1" cx="99.7" cy="40" r="1.3"/>
</g>
</svg>
